<svg width="100" height="100" viewBox="0 0 100 100" fill="none" xmlns="http://www.w3.org/2000/svg">
<circle cx="50" cy="50" r="46" fill="url(#paint0_linear_0_8)"/>
<path d="M75.1415 36.9697H64.6492C63.8255 36.9697 63.043 36.6157 62.4973 35.9911L59.6348 32.7222C59.2126 32.2329 58.5948 31.9519 57.9461 31.9519C57.2975 31.9519 56.69 32.2329 56.2575 32.7222L53.7966 35.533C52.9935 36.4492 51.8403 36.9801 50.6253 36.9801H11.9719C10.8701 40.1553 10.1494 43.5074 9.87135 46.9741H46.3625C47.0009 46.9741 47.6187 46.7138 48.0614 46.2454L51.4593 42.6642C51.8815 42.2165 52.4684 41.9667 53.0862 41.9667H53.2303C53.879 41.9667 54.4865 42.2478 54.919 42.7371L57.7814 46.0059C58.3271 46.6306 59.1097 46.9845 59.9334 46.9845H89.7214C89.4331 43.5074 88.7124 40.1553 87.621 36.9905H75.1621L75.1415 36.9697Z" fill="#091A1F"/>
<path d="M57.4828 57.8947H50.4193C49.5956 57.8947 48.8131 57.5407 48.2674 56.9161L45.4049 53.6472C44.9828 53.1579 44.3649 52.8768 43.7163 52.8768C43.0676 52.8768 42.4601 53.1579 42.0276 53.6472L39.5667 56.458C38.7636 57.3741 37.6104 57.9051 36.3954 57.9051H10.4171C11.076 61.455 12.1881 64.8488 13.7017 68.0032H31.9575C32.5959 68.0032 33.2137 67.7429 33.6565 67.2744L37.0544 63.6933C37.4765 63.2456 38.0634 62.9958 38.6812 62.9958H38.8254C39.4741 62.9958 40.0816 63.2769 40.514 63.7661L43.3765 67.035C43.9222 67.6596 44.7047 68.0136 45.5285 68.0136H85.8911C87.4047 64.8592 88.5065 61.4654 89.1757 57.9155H57.4931L57.4828 57.8947Z" fill="#091A1F"/>
<path d="M62.2913 25.31L65.6892 21.7288C66.1114 21.2812 66.6983 21.0313 67.3161 21.0313H67.4602C68.1089 21.0313 68.7164 21.3124 69.1489 21.8017L72.0113 25.0706C72.557 25.6952 73.3396 26.0491 74.1633 26.0491H81.8342C74.5237 16.2217 62.8988 9.87135 49.8016 9.87135C36.7043 9.87135 25.0794 16.2217 17.7688 26.0491H60.6027C61.2411 26.0491 61.8589 25.7889 62.3016 25.3204L62.2913 25.31Z" fill="#091A1F"/>
<path d="M41.7393 78.0076H34.6758C33.8521 78.0076 33.0696 77.6537 32.5239 77.029L29.6614 73.7602C29.2392 73.2709 28.6214 72.9898 27.9728 72.9898C27.3241 72.9898 26.7166 73.2709 26.2841 73.7602L23.8232 76.571C23.0201 77.4871 21.8669 78.018 20.6519 78.018H20.4871C27.7977 85.9404 38.2179 90.8957 49.781 90.8957C61.344 90.8957 71.7539 85.9404 79.0748 78.018H41.729L41.7393 78.0076Z" fill="#091A1F"/>
<defs>
<linearGradient id="paint0_linear_0_8" x1="91.0922" y1="27.3592" x2="10.7672" y2="75.3513" gradientUnits="userSpaceOnUse">
<stop stop-color="#F5C283"/>
<stop offset="0.51" stop-color="#A4D5B8"/>
<stop offset="1" stop-color="#93D0D2"/>
</linearGradient>
</defs>
</svg>
